<svg width="180" height="96" viewBox="0 0 180 96" fill="none" xmlns="http://www.w3.org/2000/svg">
  <rect width="180" height="96" fill="#D1FAE5" />
  <circle cx="90" cy="48" r="20" fill="#34D399" />
  <path d="M80 48C80 42.4772 84.4772 38 90 38C95.5228 38 100 42.4772 100 48C100 53.5228 95.5228 58 90 58C84.4772 58 80 53.5228 80 48Z" stroke="#10B981" stroke-width="2" />
  <path d="M85 45C85 43.8954 85.8954 43 87 43C88.1046 43 89 43.8954 89 45C89 46.1046 88.1046 47 87 47C85.8954 47 85 46.1046 85 45Z" fill="#10B981" />
  <path d="M91 45C91 43.8954 91.8954 43 93 43C94.1046 43 95 43.8954 95 45C95 46.1046 94.1046 47 93 47C91.8954 47 91 46.1046 91 45Z" fill="#10B981" />
  <path d="M85 53C85 51.8954 85.8954 51 87 51C88.1046 51 89 51.8954 89 53C89 54.1046 88.1046 55 87 55C85.8954 55 85 54.1046 85 53Z" fill="#10B981" />
  <path d="M91 53C91 51.8954 91.8954 51 93 51C94.1046 51 95 51.8954 95 53C95 54.1046 94.1046 55 93 55C91.8954 55 91 54.1046 91 53Z" fill="#10B981" />
</svg>
